<?xml version="1.0" standalone="no"?>
<!DOCTYPE svg PUBLIC "-//W3C//DTD SVG 20010904//EN"
 "http://www.w3.org/TR/2001/REC-SVG-20010904/DTD/svg10.dtd">
<svg version="1.0" xmlns="http://www.w3.org/2000/svg"
 width="1024.000000pt" height="1024.000000pt" viewBox="0 0 1024.000000 1024.000000"
 preserveAspectRatio="xMidYMid meet">

<g transform="translate(0.000000,1024.000000) scale(0.100000,-0.100000)"
fill="#000000" stroke="none">
<path d="M5515 8920 c-82 -15 -176 -49 -286 -103 l-105 -52 -99 43 c-54 23
-140 57 -189 74 -86 30 -99 32 -231 33 -126 0 -149 -3 -235 -29 -105 -32 -206
-82 -301 -148 -34 -24 -72 -50 -85 -59 -54 -36 -162 -140 -227 -219 -86 -105
-92 -110 -84 -87 4 11 3 16 -4 12 -5 -4 -7 -15 -4 -25 3 -10 -1 -24 -9 -32 -8
-8 -38 -51 -66 -94 -29 -43 -56 -78 -62 -76 -5 1 -7 -2 -3 -8 3 -6 -7 -34 -23
-63 -16 -28 -73 -137 -127 -241 -104 -204 -207 -375 -270 -453 -23 -29 -32
-40 -60 -78 -17 -22 -40 -51 -51 -65 -254 -300 -443 -446 -749 -579 -53 -23
-334 -121 -365 -126 -47 -10 -129 -51 -164 -83 -48 -46 -66 -96 -66 -195 0
-118 27 -207 113 -375 54 -105 210 -279 332 -372 33 -25 62 -47 65 -50 49 -49
294 -170 490 -240 57 -21 281 -80 365 -96 51 -10 96 -24 103 -33 8 -10 11 -10
6 -2 -5 11 0 13 27 8 19 -3 55 -9 82 -13 41 -5 47 -9 47 -30 0 -18 -4 -22 -17
-17 -11 4 -13 8 -5 11 24 8 0 22 -36 21 -20 -1 -28 -4 -16 -6 13 -2 28 -20 39
-45 17 -39 18 -40 29 -20 10 19 13 12 24 -56 17 -106 66 -271 103 -343 l30
-60 -30 -34 c-91 -104 -113 -293 -49 -421 27 -55 114 -144 176 -181 61 -35
188 -44 275 -19 73 21 91 20 148 -6 37 -18 54 -34 75 -73 27 -49 28 -52 31
-265 5 -289 20 -345 106 -388 61 -31 194 -32 242 -2 51 32 78 98 83 207 2 52
8 90 13 87 5 -3 9 -11 8 -17 -6 -50 23 -81 51 -53 8 8 10 7 5 -6 -4 -10 -11
-18 -16 -18 -5 0 -9 -5 -9 -12 0 -6 3 -8 7 -5 3 4 12 2 20 -4 10 -9 13 -8 13
1 0 25 13 0 20 -37 l8 -38 2 50 c2 38 6 19 20 -80 19 -145 28 -167 84 -216 33
-28 47 -34 101 -37 73 -5 151 17 183 51 41 44 52 89 52 217 l0 120 45 0 c25 0
45 -3 45 -8 0 -4 -19 -6 -42 -4 l-41 4 8 -58 c5 -33 8 -77 8 -99 -1 -30 1 -35
7 -20 5 11 9 38 10 60 1 38 1 39 17 20 15 -20 15 -20 10 2 -3 15 -1 20 9 16
10 -4 14 3 15 23 l1 29 8 -30 c4 -16 8 -64 9 -105 2 -92 26 -141 93 -186 89
-60 175 -53 245 18 51 52 61 88 69 251 7 129 17 151 17 35 -1 -40 1 -62 4 -47
3 20 13 27 49 37 30 8 47 19 53 34 6 18 9 13 15 -29 7 -59 55 -137 97 -158 18
-10 59 -15 118 -15 87 0 92 1 125 31 19 17 47 55 62 86 27 54 27 60 32 288 5
269 11 290 92 335 39 21 55 24 120 21 178 -8 204 -6 267 17 80 31 147 96 193
187 33 66 35 76 35 170 0 104 -8 137 -52 207 -12 20 -19 40 -14 43 5 3 12 -4
16 -15 8 -24 25 -27 25 -4 0 8 -4 13 -9 9 -17 -10 -24 35 -9 53 51 59 158 398
158 497 0 14 4 24 10 20 5 -3 7 -12 3 -20 -3 -9 1 -15 11 -15 9 0 16 4 16 9 0
5 17 14 38 20 l37 10 -45 -4 c-75 -8 -15 12 195 65 210 53 302 82 439 136 145
58 327 153 419 219 65 47 149 115 183 149 20 20 41 33 47 29 6 -3 7 -1 3 5 -3
6 11 28 31 49 89 91 149 175 211 295 102 196 109 329 24 428 -45 53 -68 64
-219 104 -108 29 -228 69 -426 142 -62 23 -197 94 -272 142 -174 113 -337 268
-473 450 -31 42 -60 79 -63 82 -7 6 -90 129 -105 155 -18 32 -151 281 -212
395 -30 58 -63 117 -73 132 -11 14 -19 29 -19 33 0 4 -27 51 -60 106 -62 101
-70 120 -46 100 10 -9 15 -8 19 2 4 10 -2 13 -18 11 -19 -2 -33 10 -66 54 -97
129 -268 282 -429 384 -206 129 -447 196 -605 168z m223 -300 c241 -67 519
-295 681 -559 33 -53 130 -226 216 -385 86 -159 189 -339 229 -400 229 -351
517 -609 871 -781 113 -55 252 -109 478 -185 125 -42 128 -44 122 -69 -14 -57
-63 -150 -118 -224 -175 -237 -435 -411 -772 -520 -106 -35 -324 -92 -405
-106 -36 -7 -72 -14 -81 -17 -13 -4 -19 8 -29 58 -17 88 -78 232 -133 315 -59
89 -200 224 -310 297 -169 112 -416 211 -637 255 -305 60 -377 66 -810 66
-452 0 -531 -7 -780 -70 -330 -82 -545 -193 -744 -384 -147 -142 -246 -334
-246 -478 l0 -43 -54 0 c-70 0 -247 31 -363 64 -288 81 -493 189 -656 345
-102 98 -168 185 -222 296 -51 105 -63 153 -44 166 8 5 68 27 134 48 167 54
260 92 405 167 481 245 848 652 1210 1339 147 280 238 414 375 551 197 198
316 254 540 254 132 0 188 -13 333 -77 102 -45 111 -47 202 -48 87 0 99 2 145
29 108 63 180 100 209 107 62 14 180 9 254 -11z m-322 -2530 c179 -15 307 -35
459 -75 444 -115 686 -314 765 -630 20 -78 22 -107 17 -220 -16 -394 -207
-690 -519 -803 -65 -24 -87 -27 -198 -26 -139 0 -192 14 -325 83 -205 106
-355 364 -355 609 0 86 27 226 56 296 14 34 28 70 31 81 5 23 42 2 -896 502
-101 54 -183 103 -183 108 1 11 262 58 402 73 120 13 592 14 746 2z m-986
-602 c194 -47 366 -211 424 -407 21 -70 21 -205 0 -285 -38 -148 -145 -292
-273 -371 -90 -54 -163 -76 -276 -82 -186 -10 -340 49 -470 181 -119 121 -172
262 -162 431 18 288 232 505 542 549 42 6 161 -3 215 -16z m742 -1024 c54 -50
164 -361 175 -500 7 -83 -7 -108 -54 -101 -20 4 -63 23 -97 43 -81 50 -124 51
-188 5 -61 -44 -133 -54 -162 -22 -16 17 -18 32 -14 88 10 129 120 392 199
476 36 37 42 39 80 34 22 -3 50 -13 61 -23z m-587 -1036 c6 -6 -1 -7 -19 -4
-16 3 -34 10 -40 16 -14 14 44 2 59 -12z m35 -23 c0 -8 -2 -15 -4 -15 -2 0 -6
7 -10 15 -3 8 -1 15 4 15 6 0 10 -7 10 -15z m987 9 c-3 -3 -12 -4 -19 -1 -8 3
-5 6 6 6 11 1 17 -2 13 -5z"/>
<path d="M4575 7996 c-51 -22 -93 -74 -106 -131 -18 -80 2 -112 205 -323 97
-101 176 -188 176 -194 0 -6 -81 -93 -180 -194 -99 -100 -184 -194 -190 -209
-30 -79 5 -182 77 -226 46 -29 132 -32 178 -7 17 9 108 91 204 182 96 91 177
166 180 166 3 0 77 -66 164 -147 199 -186 231 -211 274 -219 112 -21 229 98
207 212 -9 47 -51 101 -224 288 -80 86 -147 161 -148 167 -2 5 72 88 165 183
188 192 219 237 210 312 -5 52 -24 83 -73 120 -46 35 -125 44 -175 19 -19 -9
-116 -101 -217 -203 l-183 -187 -181 188 c-99 103 -193 194 -209 202 -35 18
-114 19 -154 1z"/>
<path d="M4079 8773 c-13 -16 -12 -17 4 -4 16 13 21 21 13 21 -2 0 -10 -8 -17
-17z"/>
<path d="M3875 8630 c3 -5 12 -7 20 -3 21 7 19 13 -6 13 -11 0 -18 -4 -14 -10z"/>
<path d="M3849 8593 c-13 -16 -12 -17 4 -4 16 13 21 21 13 21 -2 0 -10 -8 -17
-17z"/>
<path d="M6350 8606 c0 -2 8 -10 18 -17 15 -13 16 -12 3 4 -13 16 -21 21 -21
13z"/>
<path d="M3777 8532 c-10 -10 -17 -26 -17 -34 0 -18 -27 -31 -42 -21 -7 3 -8
1 -4 -5 4 -6 -1 -24 -10 -39 -13 -21 -7 -17 24 14 23 23 42 45 42 49 0 4 7 16
17 26 9 10 14 20 11 23 -3 3 -12 -3 -21 -13z"/>
<path d="M6430 8526 c0 -2 8 -10 18 -17 15 -13 16 -12 3 4 -13 16 -21 21 -21
13z"/>
<path d="M3640 8385 c-7 -9 -10 -18 -7 -21 3 -3 10 4 17 15 13 25 8 27 -10 6z"/>
<path d="M6666 8227 c3 -10 9 -15 12 -12 3 3 0 11 -7 18 -10 9 -11 8 -5 -6z"/>
<path d="M3536 8203 c-6 -14 -5 -15 5 -6 7 7 10 15 7 18 -3 3 -9 -2 -12 -12z"/>
<path d="M3456 8064 c-10 -25 1 -29 14 -5 6 12 7 21 1 21 -5 0 -12 -7 -15 -16z"/>
<path d="M3370 4615 c0 -5 5 -17 10 -25 5 -8 10 -10 10 -5 0 6 -5 17 -10 25
-5 8 -10 11 -10 5z"/>
<path d="M6810 4476 c0 -2 7 -9 15 -16 9 -7 15 -8 15 -2 0 5 -7 12 -15 16 -8
3 -15 4 -15 2z"/>
<path d="M3848 3883 c6 -2 18 -2 25 0 6 3 1 5 -13 5 -14 0 -19 -2 -12 -5z"/>
<path d="M6244 3864 c-19 -15 -19 -15 1 -6 11 5 27 12 35 15 13 5 13 6 -1 6
-8 1 -24 -6 -35 -15z"/>
<path d="M4006 3797 c3 -10 9 -15 12 -12 3 3 0 11 -7 18 -10 9 -11 8 -5 -6z"/>
<path d="M6170 3769 c0 -5 5 -7 10 -4 6 3 10 8 10 11 0 2 -4 4 -10 4 -5 0 -10
-5 -10 -11z"/>
<path d="M2145 3756 c-163 -38 -307 -114 -426 -224 -186 -174 -281 -402 -282
-682 -1 -199 42 -352 136 -482 52 -73 205 -227 268 -269 182 -124 407 -180
599 -150 191 30 280 62 414 148 37 24 71 42 74 39 2 -3 -3 -8 -12 -12 -9 -3
-16 -10 -16 -15 0 -6 10 -4 23 2 20 11 21 11 8 -4 -17 -22 -3 -22 21 0 20 18
25 5 6 -17 -11 -12 -10 -12 5 -1 13 10 20 11 31 2 7 -6 20 -9 28 -6 10 4 55
-28 124 -89 60 -52 186 -161 279 -242 94 -81 186 -162 205 -180 185 -169 337
-297 380 -319 108 -56 219 9 228 132 3 49 0 63 -20 89 -22 29 -432 397 -744
668 -227 198 -314 277 -314 289 0 4 9 28 20 52 34 74 70 225 77 316 6 94 -7
210 -38 332 -70 278 -314 516 -629 612 -76 23 -361 30 -445 11z m340 -272
c302 -76 501 -339 482 -638 -18 -284 -205 -518 -471 -587 -288 -75 -601 65
-724 323 -48 100 -62 161 -62 277 0 217 100 411 277 538 145 103 314 133 498
87z m534 -1387 c1 -5 -12 2 -28 15 -17 13 -30 27 -30 31 -1 5 12 -2 28 -15 17
-13 30 -27 30 -31z"/>
<path d="M4033 3715 c0 -22 2 -30 4 -17 2 12 2 30 0 40 -3 9 -5 -1 -4 -23z"/>
<path d="M4506 3338 c-3 -13 -5 -32 -5 -43 1 -11 5 -2 10 19 10 42 6 62 -5 24z"/>
<path d="M5683 3268 c-2 -16 1 -18 10 -9 7 7 8 14 1 21 -6 6 -10 2 -11 -12z"/>
</g>
</svg>
